# xmcd
#
# Track frame offsets:
#	150
#	15832
#	26775
#	38528
#	52332
#	63868
#	77836
#	89007
#	101388
#	112290
#	129348
#	140246
#	158656
#	172307
#	184894
#	196257
#	211391
#	226019
#	239445
#
# Disc length: 3381 seconds
#
# Revision: 0
# Processed by: cddbd v1.5.2PL0 Copyright (c) Steve Scherf et al.
# Submitted via: EasyCDDAExtractor 16.0.8.2
#
DISCID=090d3313
DTITLE=Συλλογικός δίσκος - Τα ωραιότερα ιταλικά τραγούδια 2
DYEAR=2011
DGENRE=Ξένη ιταλική
TTITLE0=Renato Carosone - Tu vuo fa l' americano
TTITLE1=Adriano Celentano - Furore
TTITLE2=Caterina Valente - Tapitipitipso
TTITLE3=Domenico Modugno - Piove
TTITLE4=Michelinno - Brigitte Bardot
TTITLE5=Peppino di Capri - Nun e peccato
TTITLE6=Marino Marini - Calcutta
TTITLE7=Mina - Giochi d' amore
TTITLE8=Chigo - Coccinella
TTITLE9=Giorgio Gaber - La balata del cerutti
TTITLE10=Adriano Celentano - Non esser timida
TTITLE11=Connie Francis - Senza mamma e'nnamurata
TTITLE12=Bruno Martino - Dracula cha cha
TTITLE13=Gianni Meccia - L'ultima lettera
TTITLE14=Peppino di Capri - Nessuno al mondo
TTITLE15=Connie Francis - Just say i love him
TTITLE16=Mina - Un Bacio e troppo poco
TTITLE17=Nini Rosso - La ballata della trompa
TTITLE18=Sophia Loren - Che m' e'mparato a fa
EXTD=
EXTT0=
EXTT1=
EXTT2=
EXTT3=
EXTT4=
EXTT5=
EXTT6=
EXTT7=
EXTT8=
EXTT9=
EXTT10=
EXTT11=
EXTT12=
EXTT13=
EXTT14=
EXTT15=
EXTT16=
EXTT17=
EXTT18=
PLAYORDER=
